<?xml version="1.0" encoding="utf-8"?>
<!-- Generator: Adobe Illustrator 25.2.1, SVG Export Plug-In . SVG Version: 6.00 Build 0)  -->
<svg version="1.1" xmlns="http://www.w3.org/2000/svg" xmlns:xlink="http://www.w3.org/1999/xlink" x="0px" y="0px"
	 viewBox="0 0 360 192" style="enable-background:new 0 0 360 192;" xml:space="preserve">
<style type="text/css">
	.st0{fill:#5F1180;}
	.st1{fill:url(#SVGID_1_);}
	.st2{fill:url(#SVGID_2_);}
	.st3{fill:url(#SVGID_3_);}
	.st4{fill:url(#SVGID_4_);}
	.st5{fill:url(#SVGID_5_);}
	.st6{fill:url(#SVGID_6_);}
	.st7{fill:url(#SVGID_7_);}
	.st8{fill:url(#SVGID_8_);}
	.st9{fill:url(#SVGID_9_);}
	.st10{fill:url(#SVGID_10_);}
	.st11{fill:url(#SVGID_11_);}
	.st12{fill:url(#SVGID_12_);}
	.st13{fill:url(#SVGID_13_);}
	.st14{fill:url(#SVGID_14_);}
	.st15{fill:url(#SVGID_15_);}
	.st16{fill:url(#SVGID_16_);}
	.st17{fill:url(#SVGID_17_);}
	.st18{fill:url(#SVGID_18_);}
	.st19{fill:url(#SVGID_19_);}
	.st20{fill:url(#SVGID_20_);}
	.st21{fill:url(#SVGID_21_);}
	.st22{fill:url(#SVGID_22_);}
	.st23{fill:url(#SVGID_23_);}
	.st24{fill:url(#SVGID_24_);}
	.st25{fill:url(#SVGID_25_);}
	.st26{fill:url(#SVGID_26_);}
	.st27{fill:url(#SVGID_27_);}
	.st28{fill:url(#SVGID_28_);}
	.st29{fill:url(#SVGID_29_);}
</style>
<g id="Layer_4">
</g>
<g id="Layer_3">
</g>
<g id="Layer_2">
	<g>
		<g>
			<polygon class="st0" points="4.11,171.79 9.74,171.79 9.74,168.06 4.1,168.06 4.1,161.15 11.2,161.15 11.2,157.42 0,157.42 
				0,183.55 11.21,183.55 11.21,179.82 4.11,179.82 			"/>
			<polygon class="st0" points="30.94,177.7 30.87,177.7 28.18,157.42 24.03,157.42 27.99,183.56 33.44,183.56 37.4,157.42 
				33.63,157.42 			"/>
			<polygon class="st0" points="50.23,183.55 61.43,183.55 61.43,179.82 54.33,179.82 54.33,171.79 59.97,171.79 59.97,168.06 
				54.33,168.06 54.33,161.15 61.43,161.15 61.43,157.42 50.23,157.42 			"/>
			<polygon class="st0" points="84.95,173.07 84.88,173.07 80.88,157.42 75.74,157.42 75.74,183.56 79.4,183.56 79.4,164.48 
				79.47,164.48 84.4,183.56 88.61,183.56 88.61,157.42 84.95,157.42 			"/>
			<polygon class="st0" points="101.43,161.15 105.72,161.15 105.73,161.15 105.73,183.56 109.84,183.56 109.84,161.15 
				114.13,161.15 114.13,157.42 101.43,157.42 			"/>
			<polygon class="st0" points="126.37,183.55 137.57,183.55 137.57,179.82 130.47,179.82 130.47,171.79 136.11,171.79 
				136.11,168.06 130.47,168.06 130.47,161.15 137.57,161.15 137.57,157.42 126.37,157.42 			"/>
			<path class="st0" d="M162.05,175.78c0-2.95-0.68-4.9-2.73-5.53v-0.07c1.83-0.74,2.69-2.46,2.69-5.15v-1.6
				c0-4.03-1.83-6.01-6.09-6.01h-6.08v26.12h4.11v-11.2h1.42c1.87,0,2.58,0.78,2.58,3.21v4.78c0,2.13,0.15,2.54,0.37,3.21h4.18
				c-0.41-0.97-0.45-1.9-0.45-3.17V175.78z M157.89,165.86c0,2.09-0.93,2.76-2.46,2.76h-1.5v-7.47h1.87c1.46,0,2.09,0.82,2.09,2.69
				V165.86z"/>
			<polygon class="st0" points="173.06,161.15 177.35,161.15 177.36,161.15 177.36,183.56 181.47,183.56 181.47,161.15 
				185.76,161.15 185.76,157.42 173.06,157.42 			"/>
			<path class="st0" d="M200.38,157.42l-4.27,26.15h3.81l0.75-5.12h4.67v-0.08l0.75,5.19h4.11l-4.26-26.14H200.38z M201.16,174.89
				l1.79-12.92h0.08l1.83,12.92H201.16z"/>
			<rect x="220.57" y="157.42" class="st0" width="4.11" height="26.14"/>
			<polygon class="st0" points="246.13,173.07 246.06,173.07 242.06,157.42 236.91,157.42 236.91,183.56 240.57,183.56 
				240.57,164.48 240.64,164.48 245.57,183.56 249.79,183.56 249.79,157.42 246.13,157.42 			"/>
			<polygon class="st0" points="270.9,176.13 270.83,176.13 268.22,157.42 262.36,157.42 262.34,157.42 262.34,183.56 
				265.92,183.56 265.92,163.77 266,163.77 268.99,183.56 272.43,183.56 275.42,163.77 275.49,163.77 275.49,183.56 279.37,183.56 
				279.37,157.42 273.51,157.42 			"/>
			<polygon class="st0" points="292.7,183.55 303.9,183.55 303.9,179.82 296.81,179.82 296.81,171.79 302.45,171.79 302.45,168.06 
				296.81,168.06 296.81,161.15 303.9,161.15 303.9,157.42 292.7,157.42 			"/>
			<polygon class="st0" points="327.36,173.07 327.29,173.07 323.29,157.42 318.14,157.42 318.14,183.56 321.8,183.56 321.8,164.48 
				321.87,164.48 326.8,183.56 331.02,183.56 331.02,157.42 327.36,157.42 			"/>
			<polygon class="st0" points="347.08,157.42 347.08,161.15 351.37,161.15 351.38,161.15 351.38,183.56 355.49,183.56 
				355.49,161.15 359.78,161.15 359.78,157.42 			"/>
		</g>
		<g>
			
				<linearGradient id="SVGID_1_" gradientUnits="userSpaceOnUse" x1="291.0152" y1="83.9136" x2="283.8112" y2="169.5144" gradientTransform="matrix(1 0 0 -1 0 194)">
				<stop  offset="0" style="stop-color:#559BE9"/>
				<stop  offset="1" style="stop-color:#D42DFA"/>
			</linearGradient>
			<path class="st1" d="M288.3,141.82c-1.09-0.45-0.97-1.66-1.53-2.46c-3-4.28-5.94-8.6-8.88-12.92c-0.43-0.64-1.39-1.32-1.04-1.99
				c0.35-0.68,1.46-0.27,2.22-0.28c8.95-0.02,17.91-0.01,26.86-0.01c2.05,0,2.07,0.01,1.38,1.99c-1.64,4.7-3.31,9.38-4.93,14.09
				c-0.24,0.7-0.68,0.87-1.31,0.99c-1.26,0.24-2.58,0.12-3.81,0.59C294.27,141.82,291.29,141.82,288.3,141.82z"/>
			
				<linearGradient id="SVGID_2_" gradientUnits="userSpaceOnUse" x1="355.7505" y1="89.3616" x2="348.5464" y2="174.9624" gradientTransform="matrix(1 0 0 -1 0 194)">
				<stop  offset="0" style="stop-color:#559BE9"/>
				<stop  offset="1" style="stop-color:#D42DFA"/>
			</linearGradient>
			<path class="st2" d="M360,75.79c-0.56,1.78-0.27,3.64-0.54,5.46c-0.57,3.84-1.18,7.66-2.29,11.4c-0.23,0.78-0.43,1.04-1.41,0.93
				c-2.12-0.23-4.27-0.18-6.41-0.12c-1.37,0.03-1.74-0.54-1.57-1.81c0.81-6.06,1.58-12.12,2.36-18.19c0.11-0.84,0.31-1.57,1.4-1.56
				c2.49,0.02,4.98-0.01,7.46,0.02c0.33,0,0.66,0.19,0.99,0.29C360,73.4,360,74.6,360,75.79z"/>
			
				<linearGradient id="SVGID_3_" gradientUnits="userSpaceOnUse" x1="289.533" y1="83.7888" x2="282.329" y2="169.3896" gradientTransform="matrix(1 0 0 -1 0 194)">
				<stop  offset="0" style="stop-color:#559BE9"/>
				<stop  offset="1" style="stop-color:#D42DFA"/>
			</linearGradient>
			<path class="st3" d="M290.39,5.88c0.37,0.64,0.31,1.34,0.31,2.03c0,3.13,0.01,6.26,0,9.39c0,2.01-0.04,2.04-2.12,2.05
				c-4.97,0-9.94,0.01-14.9-0.01c-0.57,0-1.44,0.31-1.64-0.25c-0.23-0.63,0.63-1.01,1.08-1.42c3.1-2.86,6.24-5.68,9.36-8.52
				c0.66-0.6,1.35-1.17,1.71-2.03c0.37-0.89,1.26-0.61,1.94-0.82c0.71-0.21,1.51,0,2.17-0.42C289,5.88,289.69,5.88,290.39,5.88z"/>
			
				<linearGradient id="SVGID_4_" gradientUnits="userSpaceOnUse" x1="310.0505" y1="85.5156" x2="302.8465" y2="171.1163" gradientTransform="matrix(1 0 0 -1 0 194)">
				<stop  offset="0" style="stop-color:#559BE9"/>
				<stop  offset="1" style="stop-color:#D42DFA"/>
			</linearGradient>
			<path class="st4" d="M295.47,5.88c1.13,0.42,2.33,0.43,3.52,0.54c0.74,0.06,1.24,0.28,1.3,1.11c0.05,0.7,0.55,1.15,1,1.61
				c2.92,2.99,5.84,5.98,8.75,8.98c0.26,0.27,0.78,0.47,0.63,0.92c-0.16,0.47-0.69,0.3-1.06,0.3c-4.63,0.01-9.26-0.01-13.89,0.02
				c-1.12,0.01-1.48-0.48-1.47-1.53c0.04-3.98,0.02-7.96,0.03-11.95C294.67,5.88,295.07,5.88,295.47,5.88z"/>
			
				<linearGradient id="SVGID_5_" gradientUnits="userSpaceOnUse" x1="293.8808" y1="84.1548" x2="286.6768" y2="169.7555" gradientTransform="matrix(1 0 0 -1 0 194)">
				<stop  offset="0" style="stop-color:#559BE9"/>
				<stop  offset="1" style="stop-color:#D42DFA"/>
			</linearGradient>
			<path class="st5" d="M292.18,93.43c-5.72,0-11.45-0.02-17.17,0.01c-1.09,0.01-1.62-0.3-1.66-1.51
				c-0.17-6.01-0.42-12.02-0.63-18.03c-0.07-1.92,0.04-2.02,1.99-2.02c11.05,0,22.1,0.02,33.15-0.03c1.49-0.01,1.95,0.47,2.01,1.96
				c0.22,5.96,0.54,11.91,0.9,17.87c0.08,1.37-0.32,1.79-1.72,1.78C303.43,93.39,297.81,93.44,292.18,93.43z"/>
			
				<linearGradient id="SVGID_6_" gradientUnits="userSpaceOnUse" x1="280.3679" y1="83.0175" x2="273.1639" y2="168.6183" gradientTransform="matrix(1 0 0 -1 0 194)">
				<stop  offset="0" style="stop-color:#559BE9"/>
				<stop  offset="1" style="stop-color:#D42DFA"/>
			</linearGradient>
			<path class="st6" d="M275.8,67.4c-5.03,0-10.06,0.01-15.09,0c-1.82,0-1.95-0.15-1.96-1.96c-0.04-5.97-0.03-11.95-0.12-17.92
				c-0.02-1.43,0.45-1.93,1.88-1.9c6.27,0.14,12.54,0.02,18.81,0.11c3.87,0.06,7.76,0.03,11.64-0.11c1.45-0.05,1.89,0.49,1.87,1.91
				c-0.06,5.97-0.03,11.95-0.03,17.92c0,1.87-0.08,1.96-1.92,1.96C285.86,67.41,280.83,67.4,275.8,67.4z"/>
			
				<linearGradient id="SVGID_7_" gradientUnits="userSpaceOnUse" x1="316.2595" y1="86.0381" x2="309.0555" y2="171.6389" gradientTransform="matrix(1 0 0 -1 0 194)">
				<stop  offset="0" style="stop-color:#559BE9"/>
				<stop  offset="1" style="stop-color:#D42DFA"/>
			</linearGradient>
			<path class="st7" d="M311.88,67.4c-4.53,0-9.06-0.03-13.59,0.02c-1.4,0.02-1.94-0.46-1.93-1.9c0.05-6.02,0.05-12.04,0-18.07
				c-0.01-1.34,0.47-1.85,1.83-1.84c9.2,0.04,18.4,0.03,27.6,0c1.19,0,1.7,0.36,1.69,1.63c-0.05,6.12-0.05,12.24,0,18.36
				c0.01,1.39-0.55,1.82-1.86,1.81C321.03,67.37,316.45,67.4,311.88,67.4z"/>
			
				<linearGradient id="SVGID_8_" gradientUnits="userSpaceOnUse" x1="332.5017" y1="87.405" x2="325.2978" y2="173.0058" gradientTransform="matrix(1 0 0 -1 0 194)">
				<stop  offset="0" style="stop-color:#559BE9"/>
				<stop  offset="1" style="stop-color:#D42DFA"/>
			</linearGradient>
			<path class="st8" d="M330,71.89c4.93,0,9.85,0.03,14.78-0.02c1.28-0.01,1.76,0.27,1.57,1.69c-0.81,6.06-1.52,12.13-2.24,18.2
				c-0.14,1.18-0.61,1.71-1.91,1.7c-8.66-0.05-17.32-0.04-25.98-0.01c-1.08,0-1.61-0.28-1.67-1.5c-0.32-6.25-0.7-12.5-1.1-18.74
				c-0.08-1.28,0.7-1.32,1.62-1.32C320.05,71.89,325.03,71.89,330,71.89z"/>
			
				<linearGradient id="SVGID_9_" gradientUnits="userSpaceOnUse" x1="256.1263" y1="80.9774" x2="248.9223" y2="166.5782" gradientTransform="matrix(1 0 0 -1 0 194)">
				<stop  offset="0" style="stop-color:#559BE9"/>
				<stop  offset="1" style="stop-color:#D42DFA"/>
			</linearGradient>
			<path class="st9" d="M252.64,71.89c4.88,0,9.76,0.01,14.63-0.01c0.98,0,1.61,0.2,1.66,1.37c0.25,6.06,0.57,12.11,0.81,18.17
				c0.08,1.99,0.01,2.02-1.96,2.02c-8.21,0-16.43-0.02-24.64,0.02c-1.29,0.01-1.98-0.33-2.28-1.7c-1.34-6.13-2.75-12.23-4.18-18.34
				c-0.29-1.25,0.13-1.56,1.33-1.55C242.88,71.91,247.76,71.89,252.64,71.89z"/>
			
				<linearGradient id="SVGID_10_" gradientUnits="userSpaceOnUse" x1="274.0569" y1="82.4864" x2="266.8528" y2="168.0872" gradientTransform="matrix(1 0 0 -1 0 194)">
				<stop  offset="0" style="stop-color:#559BE9"/>
				<stop  offset="1" style="stop-color:#D42DFA"/>
			</linearGradient>
			<path class="st10" d="M272.82,98.15c4.82,0,9.65,0.06,14.47-0.04c1.51-0.03,2.04,0.56,2.14,1.93c0.15,2.28,0.11,4.56,0.28,6.85
				c0.28,3.71,0.25,7.44,0.41,11.17c0.05,1.22-0.36,1.68-1.61,1.68c-7.76-0.03-15.51-0.03-23.27,0c-1.12,0-1.72-0.39-2.08-1.46
				c-2.08-6.23-4.18-12.44-6.33-18.64c-0.4-1.14-0.14-1.51,1.07-1.5C262.88,98.17,267.85,98.15,272.82,98.15z"/>
			
				<linearGradient id="SVGID_11_" gradientUnits="userSpaceOnUse" x1="309.2536" y1="85.4485" x2="302.0496" y2="171.0493" gradientTransform="matrix(1 0 0 -1 0 194)">
				<stop  offset="0" style="stop-color:#559BE9"/>
				<stop  offset="1" style="stop-color:#D42DFA"/>
			</linearGradient>
			<path class="st11" d="M309.02,98.15c4.68,0,9.36,0.03,14.03-0.02c1.32-0.01,1.74,0.35,1.5,1.74c-1.01,5.98-1.94,11.98-2.84,17.98
				c-0.2,1.37-0.72,1.92-2.2,1.91c-7.86-0.07-15.73-0.06-23.59-0.01c-1.45,0.01-1.98-0.38-2.03-1.92
				c-0.19-5.81-0.56-11.61-0.82-17.42c-0.1-2.21,0-2.26,2.2-2.26C299.86,98.15,304.44,98.15,309.02,98.15z"/>
			
				<linearGradient id="SVGID_12_" gradientUnits="userSpaceOnUse" x1="244.5287" y1="80.0014" x2="237.3246" y2="165.6021" gradientTransform="matrix(1 0 0 -1 0 194)">
				<stop  offset="0" style="stop-color:#559BE9"/>
				<stop  offset="1" style="stop-color:#D42DFA"/>
			</linearGradient>
			<path class="st12" d="M239.75,67.4c-4.53,0-9.05-0.03-13.58,0.02c-1.35,0.01-1.8-0.37-1.62-1.83c0.75-6.37,2.47-12.46,4.95-18.37
				c0.49-1.18,1.18-1.62,2.47-1.61c7.01,0.06,14.02,0.05,21.04,0c1.4-0.01,1.87,0.43,1.91,1.88c0.17,6.01,0.19,12.02,0.27,18.04
				c0.02,1.42-0.44,1.93-1.87,1.9C248.8,67.36,244.28,67.4,239.75,67.4z"/>
			
				<linearGradient id="SVGID_13_" gradientUnits="userSpaceOnUse" x1="348.5054" y1="88.7519" x2="341.3013" y2="174.3527" gradientTransform="matrix(1 0 0 -1 0 194)">
				<stop  offset="0" style="stop-color:#559BE9"/>
				<stop  offset="1" style="stop-color:#D42DFA"/>
			</linearGradient>
			<path class="st13" d="M345.21,67.4c-4.13,0-8.26-0.03-12.38,0.02c-1.35,0.02-1.84-0.49-1.83-1.84c0.05-6.07,0.04-12.13,0-18.2
				c-0.01-1.29,0.47-1.77,1.75-1.76c6.51,0.03,13.03,0.03,19.54,0c1-0.01,1.54,0.39,1.92,1.28c2.62,6.07,4.26,12.4,5.16,18.93
				c0.16,1.19-0.33,1.6-1.49,1.59C353.67,67.38,349.44,67.4,345.21,67.4z"/>
			
				<linearGradient id="SVGID_14_" gradientUnits="userSpaceOnUse" x1="339.9718" y1="88.0337" x2="332.7677" y2="173.6344" gradientTransform="matrix(1 0 0 -1 0 194)">
				<stop  offset="0" style="stop-color:#559BE9"/>
				<stop  offset="1" style="stop-color:#D42DFA"/>
			</linearGradient>
			<path class="st14" d="M341.92,98.15c3.83,0,7.66-0.01,11.49,0c1.8,0,1.9,0.18,1.18,1.89c-2.89,6.84-6.8,13.03-11.66,18.64
				c-0.82,0.94-1.56,1.38-3.01,1.16c-2.29-0.34-4.66-0.11-7-0.12c-2.04-0.01-4.08-0.02-6.12,0c-1.06,0.01-1.55-0.28-1.36-1.49
				c1.01-6.18,1.98-12.37,2.93-18.56c0.18-1.15,0.73-1.57,1.9-1.55C334.16,98.18,338.04,98.15,341.92,98.15z"/>
			
				<linearGradient id="SVGID_15_" gradientUnits="userSpaceOnUse" x1="244.5428" y1="80.0026" x2="237.3388" y2="165.6034" gradientTransform="matrix(1 0 0 -1 0 194)">
				<stop  offset="0" style="stop-color:#559BE9"/>
				<stop  offset="1" style="stop-color:#D42DFA"/>
			</linearGradient>
			<path class="st15" d="M240.5,98.15c3.43,0,6.87,0.03,10.3-0.02c1.11-0.02,1.68,0.36,2.04,1.46c2.05,6.18,4.19,12.34,6.29,18.51
				c0.51,1.48,0.41,1.61-1.19,1.61c-4.08,0.01-8.16,0-12.24,0c-0.4,0-0.86-0.13-1.18,0.02c-2.21,1.01-3.17-0.57-4.32-1.93
				c-4.62-5.43-8.27-11.43-11.01-18c-0.64-1.54-0.55-1.65,1.16-1.66C233.73,98.14,237.11,98.15,240.5,98.15z"/>
			
				<linearGradient id="SVGID_16_" gradientUnits="userSpaceOnUse" x1="327.8909" y1="87.017" x2="320.6869" y2="172.6177" gradientTransform="matrix(1 0 0 -1 0 194)">
				<stop  offset="0" style="stop-color:#559BE9"/>
				<stop  offset="1" style="stop-color:#D42DFA"/>
			</linearGradient>
			<path class="st16" d="M322.73,41.16c-4.23,0-8.46-0.05-12.69,0.03c-1.48,0.03-1.97-0.54-2.11-1.97
				c-0.46-4.6-1.03-9.19-1.63-13.77c-0.16-1.21,0.22-1.63,1.4-1.63c5.77,0.02,11.54,0.02,17.31,0.01c0.88,0,1.46,0.33,1.95,1.09
				c3.14,4.9,6.33,9.77,9.49,14.65c0.26,0.39,0.8,0.79,0.49,1.3c-0.29,0.49-0.91,0.27-1.38,0.28
				C331.29,41.16,327.01,41.16,322.73,41.16z"/>
			
				<linearGradient id="SVGID_17_" gradientUnits="userSpaceOnUse" x1="270.0199" y1="82.1467" x2="262.8159" y2="167.7475" gradientTransform="matrix(1 0 0 -1 0 194)">
				<stop  offset="0" style="stop-color:#559BE9"/>
				<stop  offset="1" style="stop-color:#D42DFA"/>
			</linearGradient>
			<path class="st17" d="M262.91,41.16c-4.23,0-8.46,0.01-12.69,0c-1.57,0-1.69-0.17-0.93-1.45c2.91-4.98,5.86-9.94,8.78-14.92
				c0.4-0.68,0.96-0.95,1.72-0.95c5.57,0,11.15,0.01,16.72-0.01c1.01,0,1.42,0.43,1.41,1.44c-0.06,4.53-0.04,9.06-0.14,13.58
				c-0.05,2.23-0.24,2.31-2.47,2.31C271.17,41.16,267.04,41.16,262.91,41.16z"/>
			
				<linearGradient id="SVGID_18_" gradientUnits="userSpaceOnUse" x1="298.6757" y1="84.5583" x2="291.4717" y2="170.1591" gradientTransform="matrix(1 0 0 -1 0 194)">
				<stop  offset="0" style="stop-color:#559BE9"/>
				<stop  offset="1" style="stop-color:#D42DFA"/>
			</linearGradient>
			<path class="st18" d="M292.79,41.15c-3.29,0-6.57-0.03-9.86,0.01c-1.16,0.02-1.6-0.44-1.56-1.59c0.14-4.82,0.24-9.65,0.34-14.47
				c0.02-0.87,0.38-1.28,1.25-1.28c6.12,0.01,12.25,0.01,18.37,0.01c0.87,0,1.21,0.46,1.3,1.29c0.51,4.85,1.01,9.69,1.62,14.53
				c0.16,1.31-0.35,1.53-1.45,1.51C299.46,41.13,296.13,41.15,292.79,41.15z"/>
			
				<linearGradient id="SVGID_19_" gradientUnits="userSpaceOnUse" x1="263.1075" y1="81.565" x2="255.9035" y2="167.1657" gradientTransform="matrix(1 0 0 -1 0 194)">
				<stop  offset="0" style="stop-color:#559BE9"/>
				<stop  offset="1" style="stop-color:#D42DFA"/>
			</linearGradient>
			<path class="st19" d="M246.71,124.43c0.69-0.37,1.2-0.27,1.68-0.27c7.16-0.01,14.32,0.02,21.49-0.03
				c1.21-0.01,2.02,0.32,2.72,1.37c3.26,4.88,6.6,9.7,9.9,14.55c0.19,0.28,0.55,0.55,0.32,0.92c-0.22,0.35-0.63,0.19-0.96,0.13
				c-10.88-1.77-20.85-5.75-29.77-12.28C250.27,127.48,248.45,126.12,246.71,124.43z"/>
			
				<linearGradient id="SVGID_20_" gradientUnits="userSpaceOnUse" x1="319.8476" y1="86.3401" x2="312.6436" y2="171.9409" gradientTransform="matrix(1 0 0 -1 0 194)">
				<stop  offset="0" style="stop-color:#559BE9"/>
				<stop  offset="1" style="stop-color:#D42DFA"/>
			</linearGradient>
			<path class="st20" d="M337.01,124.51c-3.5,3.38-7.44,6.07-11.59,8.42c-5.35,3.03-11,5.37-16.98,6.83
				c-0.5,0.12-1.11,0.53-1.53,0.02c-0.34-0.42,0.06-0.95,0.22-1.41c1.44-4.24,2.92-8.47,4.34-12.72c0.32-0.95,0.74-1.52,1.87-1.52
				c7.57,0.03,15.13,0.02,22.7,0.02C336.31,124.16,336.62,124.11,337.01,124.51z"/>
			
				<linearGradient id="SVGID_21_" gradientUnits="userSpaceOnUse" x1="233.1383" y1="79.0427" x2="225.9342" y2="164.6436" gradientTransform="matrix(1 0 0 -1 0 194)">
				<stop  offset="0" style="stop-color:#559BE9"/>
				<stop  offset="1" style="stop-color:#D42DFA"/>
			</linearGradient>
			<path class="st21" d="M231.92,93.43c-1.29,0-2.59-0.02-3.88,0.01c-0.84,0.02-1.27-0.36-1.49-1.14
				c-1.71-6.27-2.62-12.64-2.52-19.15c0.01-0.88,0.4-1.26,1.27-1.25c2.04,0.02,4.08,0.01,6.12,0.01c0.77,0,1.17,0.36,1.34,1.11
				c1.43,6.35,2.88,12.7,4.33,19.05c0.23,1-0.18,1.39-1.14,1.38C234.6,93.42,233.26,93.43,231.92,93.43z"/>
			
				<linearGradient id="SVGID_22_" gradientUnits="userSpaceOnUse" x1="250.1759" y1="80.4766" x2="242.9719" y2="166.0774" gradientTransform="matrix(1 0 0 -1 0 194)">
				<stop  offset="0" style="stop-color:#559BE9"/>
				<stop  offset="1" style="stop-color:#D42DFA"/>
			</linearGradient>
			<path class="st22" d="M238.47,41.15c-1.44,0-2.89,0.02-4.33-0.01c-1.37-0.03-1.51-0.26-0.8-1.48c2.13-3.67,4.64-7.07,7.4-10.29
				c1.85-2.16,3.78-4.23,5.99-6.02c0.3-0.24,0.63-0.73,1.01-0.38c1.41,1.31,3.12,0.73,4.71,0.84c1.51,0.1,1.65,0.25,0.9,1.53
				c-2.9,4.93-5.84,9.85-8.73,14.79c-0.43,0.74-0.98,1.04-1.82,1.03C241.36,41.13,239.92,41.15,238.47,41.15z"/>
			
				<linearGradient id="SVGID_23_" gradientUnits="userSpaceOnUse" x1="347.2379" y1="88.6452" x2="340.0339" y2="174.246" gradientTransform="matrix(1 0 0 -1 0 194)">
				<stop  offset="0" style="stop-color:#559BE9"/>
				<stop  offset="1" style="stop-color:#D42DFA"/>
			</linearGradient>
			<path class="st23" d="M346.54,41.15c-3.72,1.08-5.45-1.12-7.12-3.97c-2.33-3.98-5.01-7.76-7.52-11.64
				c-0.28-0.43-0.87-0.85-0.54-1.43c0.28-0.49,0.9-0.27,1.38-0.29c1.28-0.07,2.58,0.16,3.83-0.35c0.61-0.25,1.03,0.21,1.43,0.59
				c4.92,4.68,9.2,9.88,12.63,15.76c0.65,1.12,0.33,1.37-0.8,1.34C348.72,41.13,347.63,41.15,346.54,41.15z"/>
			
				<linearGradient id="SVGID_24_" gradientUnits="userSpaceOnUse" x1="326.2874" y1="86.882" x2="319.0833" y2="172.4828" gradientTransform="matrix(1 0 0 -1 0 194)">
				<stop  offset="0" style="stop-color:#559BE9"/>
				<stop  offset="1" style="stop-color:#D42DFA"/>
			</linearGradient>
			<path class="st24" d="M331.49,19.35c-0.97,0-1.95,0-2.92,0c-3.53,0-7.05-0.01-10.58,0.01c-0.82,0-1.55-0.11-2.17-0.75
				c-3.38-3.5-6.78-6.98-10.17-10.47c-0.13-0.13-0.2-0.31-0.48-0.79c9.87,1.96,18.52,5.87,26.41,11.5
				C331.55,19.02,331.52,19.19,331.49,19.35z"/>
			
				<linearGradient id="SVGID_25_" gradientUnits="userSpaceOnUse" x1="273.5022" y1="82.4398" x2="266.2982" y2="168.0405" gradientTransform="matrix(1 0 0 -1 0 194)">
				<stop  offset="0" style="stop-color:#559BE9"/>
				<stop  offset="1" style="stop-color:#D42DFA"/>
			</linearGradient>
			<path class="st25" d="M252.2,18.94c7.8-5.7,16.42-9.51,25.86-11.46c0.07,0.12,0.15,0.23,0.22,0.35
				c-1.99,1.83-3.97,3.67-5.97,5.49c-1.91,1.74-3.84,3.45-5.74,5.2c-0.54,0.49-1.09,0.83-1.84,0.83c-3.93-0.01-7.86,0-11.79-0.01
				C252.71,19.34,252.44,19.39,252.2,18.94z"/>
		</g>
		<g>
			<linearGradient id="SVGID_26_" gradientUnits="userSpaceOnUse" x1="29.4185" y1="140.2812" x2="29.4185" y2="5.8804">
				<stop  offset="8.524463e-08" style="stop-color:#D70A84"/>
				<stop  offset="1" style="stop-color:#63117F"/>
			</linearGradient>
			<polygon class="st26" points="0.62,140.28 58.22,140.28 58.22,121.08 21.74,121.08 21.74,79.8 50.73,79.8 50.73,60.6 21.74,60.6 
				21.74,25.08 58.22,25.08 58.22,5.88 0.62,5.88 			"/>
			<linearGradient id="SVGID_27_" gradientUnits="userSpaceOnUse" x1="99.1128" y1="140.2812" x2="99.1128" y2="5.8804">
				<stop  offset="8.524463e-08" style="stop-color:#D70A84"/>
				<stop  offset="1" style="stop-color:#63117F"/>
			</linearGradient>
			<polygon class="st27" points="100.26,110.14 99.88,110.14 86.06,5.88 64.74,5.88 85.1,140.28 113.13,140.28 133.48,5.88 
				114.09,5.88 			"/>
			<linearGradient id="SVGID_28_" gradientUnits="userSpaceOnUse" x1="171.4944" y1="140.2812" x2="171.4944" y2="5.8804">
				<stop  offset="8.524463e-08" style="stop-color:#D70A84"/>
				<stop  offset="1" style="stop-color:#63117F"/>
			</linearGradient>
			<polygon class="st28" points="204.13,5.88 138.85,5.88 138.85,25.08 160.93,25.08 160.93,140.28 182.05,140.28 182.05,25.08 
				204.13,25.08 			"/>
			<linearGradient id="SVGID_29_" gradientUnits="userSpaceOnUse" x1="210.4702" y1="140.2812" x2="210.4702" y2="119.9287">
				<stop  offset="8.524463e-08" style="stop-color:#D70A84"/>
				<stop  offset="1" style="stop-color:#63117F"/>
			</linearGradient>
			<rect x="200.29" y="119.93" class="st29" width="20.35" height="20.35"/>
		</g>
	</g>
</g>
</svg>
