<?xml version="1.0" encoding="utf-8"?>
<!-- Generator: Adobe Illustrator 25.2.1, SVG Export Plug-In . SVG Version: 6.00 Build 0)  -->
<svg version="1.1" id="Layer_1" xmlns="http://www.w3.org/2000/svg" xmlns:xlink="http://www.w3.org/1999/xlink" x="0px" y="0px"
	 viewBox="0 0 1204 455" style="enable-background:new 0 0 1204 455;" xml:space="preserve">
<style type="text/css">
	.st0{fill:url(#SVGID_1_);}
	.st1{fill:url(#SVGID_2_);}
	.st2{fill:url(#SVGID_3_);}
	.st3{fill:url(#SVGID_4_);}
	.st4{fill:url(#SVGID_5_);}
	.st5{fill:url(#SVGID_6_);}
	.st6{fill:url(#SVGID_7_);}
	.st7{fill:url(#SVGID_8_);}
	.st8{fill:url(#SVGID_9_);}
	.st9{fill:url(#SVGID_10_);}
	.st10{fill:url(#SVGID_11_);}
	.st11{fill:url(#SVGID_12_);}
	.st12{fill:url(#SVGID_13_);}
	.st13{fill:url(#SVGID_14_);}
	.st14{fill:url(#SVGID_15_);}
	.st15{fill:url(#SVGID_16_);}
	.st16{fill:url(#SVGID_17_);}
	.st17{fill:url(#SVGID_18_);}
	.st18{fill:url(#SVGID_19_);}
	.st19{fill:url(#SVGID_20_);}
	.st20{fill:url(#SVGID_21_);}
	.st21{fill:url(#SVGID_22_);}
	.st22{fill:url(#SVGID_23_);}
	.st23{fill:url(#SVGID_24_);}
	.st24{fill:url(#SVGID_25_);}
	.st25{fill:url(#SVGID_26_);}
	.st26{fill:url(#SVGID_27_);}
	.st27{fill:url(#SVGID_28_);}
	.st28{fill:url(#SVGID_29_);}
</style>
<g>
	<g>
		
			<linearGradient id="SVGID_1_" gradientUnits="userSpaceOnUse" x1="963.6271" y1="107.274" x2="940.1155" y2="386.6471" gradientTransform="matrix(1 0 0 -1 0 456)">
			<stop  offset="0" style="stop-color:#559BE9"/>
			<stop  offset="1" style="stop-color:#D42DFA"/>
		</linearGradient>
		<path class="st0" d="M954.77,452.29c-3.56-1.47-3.17-5.42-4.99-8.03c-9.79-13.97-19.39-28.07-28.98-42.17
			c-1.4-2.09-4.54-4.31-3.39-6.49c1.14-2.22,4.76-0.88,7.25-0.91c29.21-0.07,58.45-0.03,87.66-0.03c6.69,0,6.76,0.03,4.5,6.49
			c-5.35,15.34-10.8,30.61-16.09,45.99c-0.78,2.28-2.22,2.84-4.28,3.23c-4.11,0.78-8.42,0.39-12.43,1.93
			C974.25,452.29,964.52,452.29,954.77,452.29z"/>
		
			<linearGradient id="SVGID_2_" gradientUnits="userSpaceOnUse" x1="1174.9021" y1="125.0546" x2="1151.3903" y2="404.4277" gradientTransform="matrix(1 0 0 -1 0 456)">
			<stop  offset="0" style="stop-color:#559BE9"/>
			<stop  offset="1" style="stop-color:#D42DFA"/>
		</linearGradient>
		<path class="st1" d="M1188.77,236.79c-1.83,5.81-0.88,11.88-1.76,17.82c-1.86,12.53-3.85,25-7.47,37.21
			c-0.75,2.55-1.4,3.39-4.6,3.04c-6.92-0.75-13.94-0.59-20.92-0.39c-4.47,0.1-5.68-1.76-5.12-5.91c2.64-19.78,5.16-39.56,7.7-59.37
			c0.36-2.74,1.01-5.12,4.57-5.09c8.13,0.07,16.25-0.03,24.35,0.07c1.08,0,2.15,0.62,3.23,0.95
			C1188.77,228.99,1188.77,232.91,1188.77,236.79z"/>
		
			<linearGradient id="SVGID_3_" gradientUnits="userSpaceOnUse" x1="958.7897" y1="106.8668" x2="935.2781" y2="386.2399" gradientTransform="matrix(1 0 0 -1 0 456)">
			<stop  offset="0" style="stop-color:#559BE9"/>
			<stop  offset="1" style="stop-color:#D42DFA"/>
		</linearGradient>
		<path class="st2" d="M961.59,8.63c1.21,2.09,1.01,4.37,1.01,6.63c0,10.22,0.03,20.43,0,30.65c0,6.56-0.13,6.66-6.92,6.69
			c-16.22,0-32.44,0.03-48.63-0.03c-1.86,0-4.7,1.01-5.35-0.82c-0.75-2.06,2.06-3.3,3.52-4.63c10.12-9.33,20.37-18.54,30.55-27.81
			c2.15-1.96,4.41-3.82,5.58-6.63c1.21-2.9,4.11-1.99,6.33-2.68c2.32-0.69,4.93,0,7.08-1.37C957.05,8.63,959.3,8.63,961.59,8.63z"/>
		
			<linearGradient id="SVGID_4_" gradientUnits="userSpaceOnUse" x1="1025.7522" y1="112.5025" x2="1002.2406" y2="391.8752" gradientTransform="matrix(1 0 0 -1 0 456)">
			<stop  offset="0" style="stop-color:#559BE9"/>
			<stop  offset="1" style="stop-color:#D42DFA"/>
		</linearGradient>
		<path class="st3" d="M978.17,8.63c3.69,1.37,7.6,1.4,11.49,1.76c2.42,0.2,4.05,0.91,4.24,3.62c0.16,2.28,1.79,3.75,3.26,5.25
			c9.53,9.76,19.06,19.52,28.56,29.31c0.85,0.88,2.55,1.53,2.06,3c-0.52,1.53-2.25,0.98-3.46,0.98
			c-15.11,0.03-30.22-0.03-45.33,0.07c-3.66,0.03-4.83-1.57-4.8-4.99c0.13-12.99,0.07-25.98,0.1-39
			C975.56,8.63,976.86,8.63,978.17,8.63z"/>
		
			<linearGradient id="SVGID_5_" gradientUnits="userSpaceOnUse" x1="972.9796" y1="108.0612" x2="949.4681" y2="387.434" gradientTransform="matrix(1 0 0 -1 0 456)">
			<stop  offset="0" style="stop-color:#559BE9"/>
			<stop  offset="1" style="stop-color:#D42DFA"/>
		</linearGradient>
		<path class="st4" d="M967.43,294.36c-18.67,0-37.37-0.07-56.04,0.03c-3.56,0.03-5.29-0.98-5.42-4.93
			c-0.55-19.61-1.37-39.23-2.06-58.84c-0.23-6.27,0.13-6.59,6.49-6.59c36.06,0,72.13,0.07,108.19-0.1c4.86-0.03,6.36,1.53,6.56,6.4
			c0.72,19.45,1.76,38.87,2.94,58.32c0.26,4.47-1.04,5.84-5.61,5.81C1004.14,294.23,985.8,294.4,967.43,294.36z"/>
		
			<linearGradient id="SVGID_6_" gradientUnits="userSpaceOnUse" x1="928.8778" y1="104.3494" x2="905.3663" y2="383.7226" gradientTransform="matrix(1 0 0 -1 0 456)">
			<stop  offset="0" style="stop-color:#559BE9"/>
			<stop  offset="1" style="stop-color:#D42DFA"/>
		</linearGradient>
		<path class="st5" d="M913.97,209.41c-16.42,0-32.83,0.03-49.25,0c-5.94,0-6.36-0.49-6.4-6.4c-0.13-19.48-0.1-39-0.39-58.49
			c-0.07-4.67,1.47-6.3,6.14-6.2c20.46,0.46,40.93,0.07,61.39,0.36c12.63,0.2,25.33,0.1,37.99-0.36c4.73-0.16,6.17,1.6,6.1,6.23
			c-0.2,19.48-0.1,39-0.1,58.49c0,6.1-0.26,6.4-6.27,6.4C946.8,209.44,930.39,209.41,913.97,209.41z"/>
		
			<linearGradient id="SVGID_7_" gradientUnits="userSpaceOnUse" x1="1046.0162" y1="114.2077" x2="1022.5046" y2="393.5808" gradientTransform="matrix(1 0 0 -1 0 456)">
			<stop  offset="0" style="stop-color:#559BE9"/>
			<stop  offset="1" style="stop-color:#D42DFA"/>
		</linearGradient>
		<path class="st6" d="M1031.72,209.41c-14.78,0-29.57-0.1-44.35,0.07c-4.57,0.07-6.33-1.5-6.3-6.2c0.16-19.65,0.16-39.29,0-58.97
			c-0.03-4.37,1.53-6.04,5.97-6.01c30.03,0.13,60.05,0.1,90.08,0c3.88,0,5.55,1.17,5.52,5.32c-0.16,19.97-0.16,39.95,0,59.92
			c0.03,4.54-1.79,5.94-6.07,5.91C1061.59,209.31,1046.64,209.41,1031.72,209.41z"/>
		
			<linearGradient id="SVGID_8_" gradientUnits="userSpaceOnUse" x1="1099.0255" y1="118.6688" x2="1075.5142" y2="398.042" gradientTransform="matrix(1 0 0 -1 0 456)">
			<stop  offset="0" style="stop-color:#559BE9"/>
			<stop  offset="1" style="stop-color:#D42DFA"/>
		</linearGradient>
		<path class="st7" d="M1090.86,224.07c16.09,0,32.15,0.1,48.24-0.07c4.18-0.03,5.74,0.88,5.12,5.52
			c-2.64,19.78-4.96,39.59-7.31,59.4c-0.46,3.85-1.99,5.58-6.23,5.55c-28.26-0.16-56.53-0.13-84.79-0.03c-3.52,0-5.25-0.91-5.45-4.9
			c-1.04-20.4-2.28-40.8-3.59-61.16c-0.26-4.18,2.28-4.31,5.29-4.31C1058.39,224.07,1074.64,224.07,1090.86,224.07z"/>
		
			<linearGradient id="SVGID_9_" gradientUnits="userSpaceOnUse" x1="849.7609" y1="97.6911" x2="826.2494" y2="377.0642" gradientTransform="matrix(1 0 0 -1 0 456)">
			<stop  offset="0" style="stop-color:#559BE9"/>
			<stop  offset="1" style="stop-color:#D42DFA"/>
		</linearGradient>
		<path class="st8" d="M838.38,224.07c15.93,0,31.85,0.03,47.75-0.03c3.2,0,5.25,0.65,5.42,4.47c0.82,19.78,1.86,39.52,2.64,59.3
			c0.26,6.49,0.03,6.59-6.4,6.59c-26.79,0-53.62-0.07-80.42,0.07c-4.21,0.03-6.46-1.08-7.44-5.55
			c-4.37-20.01-8.98-39.91-13.64-59.86c-0.95-4.08,0.42-5.09,4.34-5.06C806.53,224.13,822.46,224.07,838.38,224.07z"/>
		
			<linearGradient id="SVGID_10_" gradientUnits="userSpaceOnUse" x1="908.2806" y1="102.6159" x2="884.7687" y2="381.989" gradientTransform="matrix(1 0 0 -1 0 456)">
			<stop  offset="0" style="stop-color:#559BE9"/>
			<stop  offset="1" style="stop-color:#D42DFA"/>
		</linearGradient>
		<path class="st9" d="M904.24,309.77c15.73,0,31.49,0.2,47.23-0.13c4.93-0.1,6.66,1.83,6.98,6.3c0.49,7.44,0.36,14.88,0.91,22.36
			c0.91,12.11,0.82,24.28,1.34,36.46c0.16,3.98-1.17,5.48-5.25,5.48c-25.33-0.1-50.62-0.1-75.95,0c-3.66,0-5.61-1.27-6.79-4.76
			c-6.79-20.33-13.64-40.6-20.66-60.83c-1.31-3.72-0.46-4.93,3.49-4.9C871.8,309.83,888.02,309.77,904.24,309.77z"/>
		
			<linearGradient id="SVGID_11_" gradientUnits="userSpaceOnUse" x1="1023.1512" y1="112.2834" x2="999.6396" y2="391.6565" gradientTransform="matrix(1 0 0 -1 0 456)">
			<stop  offset="0" style="stop-color:#559BE9"/>
			<stop  offset="1" style="stop-color:#D42DFA"/>
		</linearGradient>
		<path class="st10" d="M1022.39,309.77c15.27,0,30.55,0.1,45.79-0.07c4.31-0.03,5.68,1.14,4.9,5.68
			c-3.3,19.52-6.33,39.1-9.27,58.68c-0.65,4.47-2.35,6.27-7.18,6.23c-25.65-0.23-51.34-0.2-76.99-0.03
			c-4.73,0.03-6.46-1.24-6.63-6.27c-0.62-18.96-1.83-37.89-2.68-56.85c-0.33-7.21,0-7.38,7.18-7.38
			C992.49,309.77,1007.44,309.77,1022.39,309.77z"/>
		
			<linearGradient id="SVGID_12_" gradientUnits="userSpaceOnUse" x1="811.9102" y1="94.5058" x2="788.3984" y2="373.8786" gradientTransform="matrix(1 0 0 -1 0 456)">
			<stop  offset="0" style="stop-color:#559BE9"/>
			<stop  offset="1" style="stop-color:#D42DFA"/>
		</linearGradient>
		<path class="st11" d="M796.31,209.41c-14.78,0-29.54-0.1-44.32,0.07c-4.41,0.03-5.87-1.21-5.29-5.97
			c2.45-20.79,8.06-40.67,16.16-59.95c1.6-3.85,3.85-5.29,8.06-5.25c22.88,0.2,45.76,0.16,68.67,0c4.57-0.03,6.1,1.4,6.23,6.14
			c0.55,19.61,0.62,39.23,0.88,58.88c0.07,4.63-1.44,6.3-6.1,6.2C825.85,209.28,811.1,209.41,796.31,209.41z"/>
		
			<linearGradient id="SVGID_13_" gradientUnits="userSpaceOnUse" x1="1151.2562" y1="123.0645" x2="1127.7444" y2="402.4376" gradientTransform="matrix(1 0 0 -1 0 456)">
			<stop  offset="0" style="stop-color:#559BE9"/>
			<stop  offset="1" style="stop-color:#D42DFA"/>
		</linearGradient>
		<path class="st12" d="M1140.5,209.41c-13.48,0-26.96-0.1-40.4,0.07c-4.41,0.07-6.01-1.6-5.97-6.01c0.16-19.81,0.13-39.59,0-59.4
			c-0.03-4.21,1.53-5.78,5.71-5.74c21.25,0.1,42.53,0.1,63.77,0c3.26-0.03,5.03,1.27,6.27,4.18c8.55,19.81,13.9,40.47,16.84,61.78
			c0.52,3.88-1.08,5.22-4.86,5.19C1168.11,209.35,1154.31,209.41,1140.5,209.41z"/>
		
			<linearGradient id="SVGID_14_" gradientUnits="userSpaceOnUse" x1="1123.4053" y1="120.7208" x2="1099.8934" y2="400.0936" gradientTransform="matrix(1 0 0 -1 0 456)">
			<stop  offset="0" style="stop-color:#559BE9"/>
			<stop  offset="1" style="stop-color:#D42DFA"/>
		</linearGradient>
		<path class="st13" d="M1129.76,309.77c12.5,0,25-0.03,37.5,0c5.87,0,6.2,0.59,3.85,6.17c-9.43,22.32-22.19,42.53-38.05,60.83
			c-2.68,3.07-5.09,4.5-9.82,3.79c-7.47-1.11-15.21-0.36-22.85-0.39c-6.66-0.03-13.32-0.07-19.97,0c-3.46,0.03-5.06-0.91-4.44-4.86
			c3.3-20.17,6.46-40.37,9.56-60.57c0.59-3.75,2.38-5.12,6.2-5.06C1104.44,309.87,1117.1,309.77,1129.76,309.77z"/>
		
			<linearGradient id="SVGID_15_" gradientUnits="userSpaceOnUse" x1="811.9562" y1="94.5096" x2="788.4447" y2="373.8828" gradientTransform="matrix(1 0 0 -1 0 456)">
			<stop  offset="0" style="stop-color:#559BE9"/>
			<stop  offset="1" style="stop-color:#D42DFA"/>
		</linearGradient>
		<path class="st14" d="M798.76,309.77c11.19,0,22.42,0.1,33.62-0.07c3.62-0.07,5.48,1.17,6.66,4.76
			c6.69,20.17,13.67,40.27,20.53,60.41c1.66,4.83,1.34,5.25-3.88,5.25c-13.32,0.03-26.63,0-39.95,0c-1.31,0-2.81-0.42-3.85,0.07
			c-7.21,3.3-10.35-1.86-14.1-6.3c-15.08-17.72-26.99-37.3-35.93-58.75c-2.09-5.03-1.8-5.39,3.79-5.42
			C776.67,309.74,787.7,309.77,798.76,309.77z"/>
		
			<linearGradient id="SVGID_16_" gradientUnits="userSpaceOnUse" x1="1083.9772" y1="117.4026" x2="1060.4657" y2="396.7753" gradientTransform="matrix(1 0 0 -1 0 456)">
			<stop  offset="0" style="stop-color:#559BE9"/>
			<stop  offset="1" style="stop-color:#D42DFA"/>
		</linearGradient>
		<path class="st15" d="M1067.13,123.77c-13.81,0-27.61-0.16-41.42,0.1c-4.83,0.1-6.43-1.76-6.89-6.43
			c-1.5-15.01-3.36-29.99-5.32-44.94c-0.52-3.95,0.72-5.32,4.57-5.32c18.83,0.07,37.66,0.07,56.49,0.03c2.87,0,4.77,1.08,6.36,3.56
			c10.25,15.99,20.66,31.89,30.97,47.81c0.85,1.27,2.61,2.58,1.6,4.24c-0.95,1.6-2.97,0.88-4.5,0.91
			C1095.07,123.77,1081.1,123.77,1067.13,123.77z"/>
		
			<linearGradient id="SVGID_17_" gradientUnits="userSpaceOnUse" x1="895.1052" y1="101.5073" x2="871.5936" y2="380.8804" gradientTransform="matrix(1 0 0 -1 0 456)">
			<stop  offset="0" style="stop-color:#559BE9"/>
			<stop  offset="1" style="stop-color:#D42DFA"/>
		</linearGradient>
		<path class="st16" d="M871.9,123.77c-13.81,0-27.61,0.03-41.42,0c-5.12,0-5.52-0.55-3.04-4.73c9.5-16.25,19.13-32.44,28.66-48.69
			c1.31-2.22,3.13-3.1,5.61-3.1c18.18,0,36.39,0.03,54.57-0.03c3.3,0,4.63,1.4,4.6,4.7c-0.2,14.78-0.13,29.57-0.46,44.32
			c-0.16,7.28-0.78,7.54-8.06,7.54C898.86,123.77,885.38,123.77,871.9,123.77z"/>
		
			<linearGradient id="SVGID_18_" gradientUnits="userSpaceOnUse" x1="988.6284" y1="109.3781" x2="965.1169" y2="388.7512" gradientTransform="matrix(1 0 0 -1 0 456)">
			<stop  offset="0" style="stop-color:#559BE9"/>
			<stop  offset="1" style="stop-color:#D42DFA"/>
		</linearGradient>
		<path class="st17" d="M969.42,123.74c-10.74,0-21.44-0.1-32.18,0.03c-3.79,0.07-5.22-1.44-5.09-5.19
			c0.46-15.73,0.78-31.49,1.11-47.23c0.07-2.84,1.24-4.18,4.08-4.18c19.97,0.03,39.98,0.03,59.95,0.03c2.84,0,3.95,1.5,4.24,4.21
			c1.66,15.83,3.3,31.62,5.29,47.42c0.52,4.28-1.14,4.99-4.73,4.93C991.19,123.67,980.32,123.74,969.42,123.74z"/>
		
			<linearGradient id="SVGID_19_" gradientUnits="userSpaceOnUse" x1="872.5453" y1="99.6088" x2="849.0338" y2="378.9816" gradientTransform="matrix(1 0 0 -1 0 456)">
			<stop  offset="0" style="stop-color:#559BE9"/>
			<stop  offset="1" style="stop-color:#D42DFA"/>
		</linearGradient>
		<path class="st18" d="M819.03,395.54c2.25-1.21,3.92-0.88,5.48-0.88c23.37-0.03,46.74,0.07,70.14-0.1
			c3.95-0.03,6.59,1.04,8.88,4.47c10.64,15.93,21.54,31.66,32.31,47.49c0.62,0.91,1.79,1.8,1.04,3c-0.72,1.14-2.06,0.62-3.13,0.42
			c-35.51-5.78-68.05-18.77-97.16-40.08C830.65,405.49,824.71,401.05,819.03,395.54z"/>
		
			<linearGradient id="SVGID_20_" gradientUnits="userSpaceOnUse" x1="1057.7264" y1="115.1932" x2="1034.2151" y2="394.5663" gradientTransform="matrix(1 0 0 -1 0 456)">
			<stop  offset="0" style="stop-color:#559BE9"/>
			<stop  offset="1" style="stop-color:#D42DFA"/>
		</linearGradient>
		<path class="st19" d="M1113.74,395.8c-11.42,11.03-24.28,19.81-37.83,27.48c-17.46,9.89-35.9,17.53-55.42,22.29
			c-1.63,0.39-3.62,1.73-4.99,0.07c-1.11-1.37,0.2-3.1,0.72-4.6c4.7-13.84,9.53-27.64,14.16-41.51c1.04-3.1,2.42-4.96,6.1-4.96
			c24.71,0.1,49.38,0.07,74.09,0.07C1111.45,394.66,1112.47,394.49,1113.74,395.8z"/>
		
			<linearGradient id="SVGID_21_" gradientUnits="userSpaceOnUse" x1="774.7357" y1="91.3771" x2="751.2238" y2="370.7502" gradientTransform="matrix(1 0 0 -1 0 456)">
			<stop  offset="0" style="stop-color:#559BE9"/>
			<stop  offset="1" style="stop-color:#D42DFA"/>
		</linearGradient>
		<path class="st20" d="M770.76,294.36c-4.21,0-8.45-0.07-12.66,0.03c-2.74,0.07-4.14-1.17-4.86-3.72
			c-5.58-20.46-8.55-41.25-8.22-62.5c0.03-2.87,1.31-4.11,4.14-4.08c6.66,0.07,13.32,0.03,19.97,0.03c2.51,0,3.82,1.17,4.37,3.62
			c4.67,20.72,9.4,41.45,14.13,62.17c0.75,3.26-0.59,4.54-3.72,4.5C779.51,294.33,775.13,294.36,770.76,294.36z"/>
		
			<linearGradient id="SVGID_22_" gradientUnits="userSpaceOnUse" x1="830.3408" y1="96.0569" x2="806.8293" y2="375.43" gradientTransform="matrix(1 0 0 -1 0 456)">
			<stop  offset="0" style="stop-color:#559BE9"/>
			<stop  offset="1" style="stop-color:#D42DFA"/>
		</linearGradient>
		<path class="st21" d="M792.14,123.74c-4.7,0-9.43,0.07-14.13-0.03c-4.47-0.1-4.93-0.85-2.61-4.83
			c6.95-11.98,15.14-23.07,24.15-33.58c6.04-7.05,12.34-13.81,19.55-19.65c0.98-0.78,2.06-2.38,3.3-1.24
			c4.6,4.28,10.18,2.38,15.37,2.74c4.93,0.33,5.39,0.82,2.94,4.99c-9.46,16.09-19.06,32.15-28.49,48.27
			c-1.4,2.42-3.2,3.39-5.94,3.36C801.57,123.67,796.87,123.74,792.14,123.74z"/>
		
			<linearGradient id="SVGID_23_" gradientUnits="userSpaceOnUse" x1="1147.1195" y1="122.7163" x2="1123.608" y2="402.0894" gradientTransform="matrix(1 0 0 -1 0 456)">
			<stop  offset="0" style="stop-color:#559BE9"/>
			<stop  offset="1" style="stop-color:#D42DFA"/>
		</linearGradient>
		<path class="st22" d="M1144.84,123.74c-12.14,3.52-17.79-3.66-23.24-12.96c-7.6-12.99-16.35-25.33-24.54-37.99
			c-0.91-1.4-2.84-2.77-1.76-4.67c0.91-1.6,2.94-0.88,4.5-0.95c4.18-0.23,8.42,0.52,12.5-1.14c1.99-0.82,3.36,0.69,4.67,1.93
			c16.06,15.27,30.03,32.25,41.22,51.44c2.12,3.66,1.08,4.47-2.61,4.37C1151.96,123.67,1148.4,123.74,1144.84,123.74z"/>
		
			<linearGradient id="SVGID_24_" gradientUnits="userSpaceOnUse" x1="1078.744" y1="116.962" x2="1055.2323" y2="396.3351" gradientTransform="matrix(1 0 0 -1 0 456)">
			<stop  offset="0" style="stop-color:#559BE9"/>
			<stop  offset="1" style="stop-color:#D42DFA"/>
		</linearGradient>
		<path class="st23" d="M1095.72,52.59c-3.17,0-6.36,0-9.53,0c-11.52,0-23.01-0.03-34.53,0.03c-2.68,0-5.06-0.36-7.08-2.45
			c-11.03-11.42-22.13-22.78-33.19-34.17c-0.42-0.42-0.65-1.01-1.57-2.58c32.21,6.4,60.44,19.16,86.19,37.53
			C1095.92,51.51,1095.82,52.07,1095.72,52.59z"/>
		
			<linearGradient id="SVGID_25_" gradientUnits="userSpaceOnUse" x1="906.4704" y1="102.4639" x2="882.9589" y2="381.8367" gradientTransform="matrix(1 0 0 -1 0 456)">
			<stop  offset="0" style="stop-color:#559BE9"/>
			<stop  offset="1" style="stop-color:#D42DFA"/>
		</linearGradient>
		<path class="st24" d="M836.95,51.25c25.46-18.6,53.59-31.04,84.4-37.4c0.23,0.39,0.49,0.75,0.72,1.14
			c-6.49,5.97-12.96,11.98-19.48,17.92c-6.23,5.68-12.53,11.26-18.73,16.97c-1.76,1.6-3.56,2.71-6.01,2.71
			c-12.83-0.03-25.65,0-38.48-0.03C838.61,52.56,837.73,52.72,836.95,51.25z"/>
	</g>
	<g>
		<linearGradient id="SVGID_26_" gradientUnits="userSpaceOnUse" x1="109.8605" y1="447.2722" x2="109.8605" y2="8.6315">
			<stop  offset="8.524463e-08" style="stop-color:#D70A84"/>
			<stop  offset="1" style="stop-color:#63117F"/>
		</linearGradient>
		<path class="st25" d="M15.87,8.63h187.99v62.66H84.79v115.93h94.62v62.66H84.79v134.73h119.06v62.66H15.87V8.63z"/>
		<linearGradient id="SVGID_27_" gradientUnits="userSpaceOnUse" x1="337.3201" y1="447.2722" x2="337.3201" y2="8.6315">
			<stop  offset="8.524463e-08" style="stop-color:#D70A84"/>
			<stop  offset="1" style="stop-color:#63117F"/>
		</linearGradient>
		<path class="st26" d="M225.15,8.63h69.56l45.12,340.26h1.25L386.2,8.63h63.29l-66.42,438.64h-91.49L225.15,8.63z"/>
		<linearGradient id="SVGID_28_" gradientUnits="userSpaceOnUse" x1="573.55" y1="447.2722" x2="573.55" y2="8.6315">
			<stop  offset="8.524463e-08" style="stop-color:#D70A84"/>
			<stop  offset="1" style="stop-color:#63117F"/>
		</linearGradient>
		<path class="st27" d="M539.08,71.29h-72.06V8.63h213.06v62.66h-72.06v375.98h-68.93V71.29z"/>
		<linearGradient id="SVGID_29_" gradientUnits="userSpaceOnUse" x1="700.7545" y1="447.2722" x2="700.7545" y2="380.8481">
			<stop  offset="8.524463e-08" style="stop-color:#D70A84"/>
			<stop  offset="1" style="stop-color:#63117F"/>
		</linearGradient>
		<path class="st28" d="M667.54,380.85h66.42v66.42h-66.42V380.85z"/>
	</g>
</g>
</svg>
